{"title":"Kick Ass 2 2013 TS DUAL AUDIO GER-ENG  XviD MP3 MURDER","uid":8831483,"size":1477848126,"categoryP":"video","categoryS":"movies","magnet":"?xt=urn:btih:7634a1793bf231413120d7e549ab519da473a8e9&amp;dn=Kick+Ass+2+2013+TS+DUAL+AUDIO+GER-ENG++XviD+MP3+MURDER+&amp;tr=udp%3A%2F%2Ftracker.openbittorrent.com%3A80&amp;tr=udp%3A%2F%2Fopen.demonii.com%3A1337&amp;tr=udp%3A%2F%2Ftracker.coppersurfer.tk%3A6969&amp;tr=udp%3A%2F%2Fexodus.desync.com%3A6969","seeders":2,"leechers":0,"uploader":"R0thschild","files":9,"time":1376993980,"description":"Public Hash - Largest Bittorrent Community \nCrystal Clean files - Fast Speed! No Virus! No Fake! Enjoy!\n &lt;a href=&quot;\nhttp://www.imdb.com/title/tt1650554/&quot; rel=&quot;nofollow&quot; target=&quot;_NEW&quot;&gt;\nhttp://www.imdb.com/title/tt1650554/&lt;/a&gt;\n\nFormat : Matroska\nFormat version : Version 4 / Version 2\nFile size : 1.37 GiB\nDuration : 1h 40mn\nOverall bit rate mode : Variable\nOverall bit rate : 1 960 Kbps\nEncoded date : UTC 2013-08-20 00:36:44\n\nVideo\nID : 1\nFormat : MPEG-4 Visual\nFormat profile : Advanced Simple@L5\nFormat settings, BVOP : Yes\nFormat settings, QPel : No\nFormat settings, GMC : No warppoints\nFormat settings, Matrix : Default (H.263)\nCodec ID : V_MS/VFW/FOURCC / XVID\nCodec ID/Hint : XviD\nDuration : 1h 40mn\nBit rate : 1 671 Kbps\nWidth : 720 pixels\nHeight : 368 pixels\nDisplay aspect ratio : 16:9\nFrame rate mode : Constant\nFrame rate : 24.000 fps\nColor space : YUV\nChroma subsampling : 4:2:0\nBit depth : 8 bits\nScan type : Progressive\nCompression mode : Lossy\nBits/(Pixel*Frame) : 0.263\nStream size : 1.17 GiB (85%)\nWriting library : XviD 1.2.1 (UTC 2008-12-04)\nDefault : Yes\nForced : No\n\nAudio #1\nID : 2\nFormat : MPEG Audio\nFormat version : Version 1\nFormat profile : Layer 3\nMode : Joint stereo\nMode extension : MS Stereo\nCodec ID : A_MPEG/L3\nCodec ID/Hint : MP3\nDuration : 1h 40mn\nBit rate mode : Variable\nBit rate : 122 Kbps\nMinimum bit rate : 32.0 Kbps\nChannel count : 2 channels\nSampling rate : 44.1 KHz\nCompression mode : Lossy\nStream size : 87.4 MiB (6%)\nWriting library : LAME3.98\nEncoding settings : -m j -V 6 -q 0 -lowpass 15.5 --vbr-new -b 32\nLanguage : German\nDefault : Yes\nForced : No\n\nAudio #2\nID : 3\nFormat : MPEG Audio\nFormat version : Version 1\nFormat profile : Layer 3\nCodec ID : A_MPEG/L3\nCodec ID/Hint : MP3\nDuration : 1h 40mn\nBit rate mode : Constant\nBit rate : 128 Kbps\nChannel count : 2 channels\nSampling rate : 44.1 KHz\nCompression mode : Lossy\nStream size : 91.9 MiB (7%)\nWriting library : LAMELAME_MAJOR_VERSI\nLanguage : English\nDefault : No\nForced : No\n\nSource used was...PsO...The Germanz.thanks guys...\n\nGerman Audio is Line...........\n\nEnglish.Audio......Cam Filterd........","torrent":{"xt":"urn:btih:7634a1793bf231413120d7e549ab519da473a8e9","amp;dn":"Kick+Ass+2+2013+TS+DUAL+AUDIO+GER-ENG++XviD+MP3+MURDER+","amp;tr":["udp%3A%2F%2Ftracker.openbittorrent.com%3A80","udp%3A%2F%2Fopen.demonii.com%3A1337","udp%3A%2F%2Ftracker.coppersurfer.tk%3A6969","udp%3A%2F%2Fexodus.desync.com%3A6969"],"infoHash":"7634a1793bf231413120d7e549ab519da473a8e9","infoHashBuffer":{"type":"Buffer","data":[118,52,161,121,59,242,49,65,49,32,215,229,73,171,81,157,164,115,168,233]},"announce":[],"urlList":[]}}